<svg id="Layer_1" enable-background="new 0 0 512.002 512.002" height="512" viewBox="0 0 512.002 512.002" width="512" xmlns="http://www.w3.org/2000/svg"><g><g clip-rule="evenodd" fill-rule="evenodd"><g fill="#e0ef9b"><path d="m186.47 158.186-27.484-27.484c3.694-13.834-.237-28.521-10.365-38.649-15.621-15.621-40.948-15.621-56.568 0-15.621 15.621-15.621 40.948 0 56.569 10.128 10.128 24.815 14.059 38.649 10.365l27.484 27.484c7.784-10.931 17.354-20.501 28.284-28.285z"/><path d="m158.186 325.531-27.484 27.484c-13.834-3.694-28.521.237-38.649 10.365-15.621 15.621-15.621 40.948 0 56.569s40.948 15.621 56.568 0c10.128-10.128 14.059-24.815 10.365-38.649l27.484-27.484c-10.93-7.784-20.5-17.354-28.284-28.285z"/><path d="m325.531 353.816 27.484 27.484c-3.694 13.834.237 28.521 10.365 38.649 15.621 15.621 40.947 15.621 56.568 0s15.621-40.948 0-56.569c-10.128-10.128-24.815-14.059-38.649-10.365l-27.484-27.484c-7.783 10.931-17.353 20.501-28.284 28.285z"/><path d="m353.816 186.471 27.484-27.484c13.834 3.694 28.521-.237 38.649-10.365 15.621-15.621 15.621-40.948 0-56.569s-40.948-15.621-56.568 0c-10.128 10.128-14.059 24.815-10.365 38.649l-27.484 27.484c10.93 7.784 20.5 17.354 28.284 28.285z"/><ellipse cx="228.1" cy="209.585" rx="20" ry="20" transform="matrix(.974 -.228 .228 .974 -41.747 57.472)"/></g><path d="m248.1 209.585c0 11.046-8.954 20-20 20s-20-8.954-20-20 8.954-20 20-20c11.045 0 20 8.954 20 20zm126.232 26.416c-8.431-50.248-48.085-89.902-98.331-98.333v-53.009c12.394-7.17 20-20.335 20-34.659 0-22.091-17.909-40-40-40s-40 17.909-40 40c0 14.323 7.606 27.489 20 34.659v53.009c-50.246 8.432-89.9 48.086-98.331 98.333h-53.011c-7.17-12.394-20.336-20-34.658-20-22.092 0-40 17.909-40 40s17.909 40 40 40c14.323 0 27.488-7.606 34.658-20h53.009c8.432 50.246 48.085 89.9 98.333 98.331v53.011c-12.394 7.17-20 20.335-20 34.658 0 22.092 17.909 40 40 40s40-17.908 40-40c0-14.323-7.606-27.488-20-34.658v-53.009c50.246-8.432 89.9-48.086 98.331-98.333h53.011c7.17 12.394 20.336 20 34.658 20 22.091 0 40-17.909 40-40s-17.908-40-40-40c-14.323 0-27.488 7.606-34.658 20zm-93.132 20.384c16.569 0 30 13.431 30 30s-13.431 30-30 30-30-13.431-30-30c0-16.568 13.431-30 30-30z" fill="#cbe558"/><circle cx="281.2" cy="286.385" fill="#e0ef9b" r="30"/></g><g><path d="m462.002 206.001c-15.79 0-30.634 7.537-40.01 20h-39.479c-3.239-13.734-8.638-26.613-15.823-38.261l17.898-17.898c15.441 2.181 31.268-2.984 42.434-14.149 19.495-19.495 19.495-51.216 0-70.71-18.61-19.396-52.101-19.397-70.71 0-11.166 11.165-16.333 26.99-14.149 42.433l-17.898 17.897c-11.649-7.185-24.528-12.585-38.262-15.824v-39.479c38.071-28.89 17.962-89.721-30.003-90.01-47.967.29-68.071 61.128-29.999 90.01v39.478c-13.734 3.239-26.613 8.639-38.262 15.824l-17.898-17.897c2.183-15.443-2.984-31.268-14.149-42.433-4.481-4.481-9.682-8.022-15.457-10.526-5.065-2.194-10.955.131-13.152 5.198-2.196 5.067.131 10.956 5.198 13.152 3.457 1.498 6.575 3.624 9.269 6.318 7.555 7.554 10.534 18.666 7.775 28.998-.921 3.448.066 7.126 2.59 9.651l19.475 19.475c-5.069 4.344-9.798 9.073-14.142 14.142l-19.475-19.475c-2.524-2.524-6.203-3.51-9.651-2.59-10.333 2.759-21.444-.221-28.998-7.775-2.694-2.694-4.819-5.811-6.316-9.264-2.197-5.067-8.083-7.392-13.153-5.197-5.067 2.197-7.394 8.085-5.197 13.153 2.502 5.771 6.043 10.97 10.523 15.451 11.165 11.165 26.987 16.333 42.433 14.149l17.898 17.898c-7.184 11.649-12.584 24.527-15.823 38.261h-39.479c-28.89-38.073-89.721-17.965-90.01 30 .291 47.967 61.127 68.071 90.01 30h39.478c3.239 13.735 8.639 26.614 15.824 38.262l-17.897 17.897c-15.441-2.187-31.268 2.984-42.433 14.149-19.397 18.611-19.397 52.1 0 70.71 18.611 19.397 52.1 19.397 70.711 0 11.165-11.165 16.332-26.991 14.149-42.434l17.898-17.897c11.649 7.184 24.527 12.584 38.261 15.823v39.48c-38.073 28.89-17.964 89.72 30.001 90.009 47.967-.29 68.071-61.127 29.999-90.009v-39.478c13.735-3.239 26.614-8.639 38.262-15.824l17.897 17.896c-2.183 15.443 2.984 31.269 14.149 42.433 18.612 19.397 52.099 19.398 70.711-.001 19.495-19.495 19.495-51.215 0-70.71-11.165-11.165-26.991-16.331-42.434-14.149l-17.898-17.898c7.184-11.649 12.584-24.527 15.823-38.262h39.479c28.896 38.076 89.72 17.96 90.01-30.001.002-27.566-22.428-49.996-49.998-49.996zm-101.915-68.228c2.524-2.524 3.512-6.203 2.591-9.651-2.759-10.332.22-21.443 7.775-28.998 11.167-11.638 31.26-11.638 42.426 0 11.697 11.697 11.697 30.729 0 42.426-7.554 7.555-18.667 10.534-28.999 7.775-3.446-.92-7.126.066-9.651 2.59l-19.475 19.475c-4.344-5.069-9.073-9.798-14.142-14.142zm-208.172 236.456c-2.524 2.524-3.511 6.202-2.59 9.651 2.759 10.333-.22 21.444-7.775 28.999-11.166 11.639-31.26 11.638-42.426 0-11.639-11.166-11.638-31.26 0-42.426 7.555-7.555 18.666-10.534 28.998-7.775 3.452.921 7.128-.066 9.651-2.59l19.475-19.475c4.344 5.069 9.073 9.797 14.142 14.141zm222.314-14.142c2.524 2.524 6.203 3.51 9.651 2.59 29.626-7.618 50.437 28.332 28.998 50.201-11.167 11.639-31.259 11.638-42.426 0-7.555-7.554-10.534-18.666-7.774-28.998.921-3.449-.066-7.127-2.591-9.651l-19.475-19.474c5.069-4.344 9.798-9.073 14.142-14.142zm87.773-74.086c-10.684 0-20.648-5.75-26.003-15.007-1.787-3.09-5.086-4.993-8.656-4.993h-53.011c-4.884 0-9.054 3.528-9.862 8.345-7.745 46.161-43.963 82.38-90.124 90.126-4.817.809-8.345 4.978-8.345 9.862v53.009c0 3.569 1.903 6.869 4.993 8.656 26.329 15.56 15.638 55.696-14.993 56.002-30.634-.307-41.32-40.446-14.992-56.002 3.09-1.788 4.993-5.087 4.993-8.656v-53.011c0-4.884-3.528-9.054-8.345-9.862-46.161-7.745-82.38-43.963-90.125-90.124-.809-4.817-4.978-8.345-9.862-8.345h-53.011c-3.57 0-6.869 1.903-8.656 4.993-15.561 26.328-55.697 15.638-56.003-14.994.308-30.634 40.447-41.319 56.003-14.992 1.787 3.09 5.086 4.993 8.656 4.993h53.011c4.884 0 9.054-3.528 9.862-8.345 7.746-46.161 43.964-82.379 90.124-90.125 4.817-.809 8.345-4.978 8.345-9.862v-53.01c0-3.57-1.903-6.869-4.993-8.656-26.329-15.561-15.639-55.697 14.993-56.003 30.634.307 41.32 40.447 14.992 56.002-3.09 1.788-4.993 5.086-4.993 8.656v53.009c0 4.884 3.528 9.054 8.345 9.862 46.161 7.746 82.379 43.965 90.124 90.125.809 4.817 4.978 8.345 9.862 8.345h53.011c3.569 0 6.869-1.903 8.656-4.993 15.565-26.332 55.696-15.636 56.003 14.993.001 16.544-13.457 30.002-29.999 30.002z"/><path d="m258.1 209.585c0-16.542-13.458-30-30-30-39.799 1.648-39.787 58.358 0 60 16.542 0 30-13.458 30-30zm-30 10c-5.514 0-10-4.486-10-10 .549-13.266 19.453-13.262 20 0 0 5.514-4.486 10-10 10z"/><path d="m281.2 246.385c-22.056 0-40 17.944-40 40 2.197 53.066 77.811 53.05 80.001 0 0-22.056-17.945-40-40.001-40zm0 60.001c-11.028 0-20-8.972-20-20 1.099-26.534 38.906-26.525 40.001 0 0 11.027-8.973 20-20.001 20z"/><path d="m199.6 272.001h-.007c-5.523 0-9.997 4.477-9.997 10 .528 13.263 19.479 13.263 20.004 0 0-5.523-4.477-10-10-10z"/><path d="m305.2 216.401c13.268-.528 13.258-19.477 0-20h-.007c-13.269.53-13.252 19.478.007 20z"/><path d="m92.053 102.053c13.268-.528 13.258-19.477 0-20h-.008c-13.269.529-13.25 19.478.008 20z"/></g></g></svg>